# xmcd
#
# Track frame offsets:
#	150
#	13600
#	25830
#	40472
#	52665
#	63432
#	81687
#	99605
#	112977
#	128307
#	145227
#	166147
#	178952
#	199592
#	212862
#	224190
#	242272
#	258072
#
# Disc length: 3722 seconds
#
# Revision: 14
# Processed by: cddbd v1.5.2PL0 Copyright (c) Steve Scherf et al.
# Submitted via: audiograbber 1.83.01
#
DISCID=fa0e8812
DTITLE=Various Artist - All Time Greatest Country Songs (1-2)
DYEAR=2000
DGENRE=Country
TTITLE0=Kenny Rogers - Ruby, don't take your love to town
TTITLE1=Nilsson - Everybody's talking (1969)
TTITLE2=Bob Dylan - Lay lady lay (1969)
TTITLE3=Patsy Cline - Crazy (1961)
TTITLE4=Dolly Parton, Lyretta Lynn, Tammy Wynette - Silver threads and golden n
TTITLE4=eedles (1993)
TTITLE5=Kris Kristofferson - Me and Bobby Mcgee (1969)
TTITLE6=John Hiatt - Memphis in the meantime (1999)
TTITLE7=John Denver - Country road (Live) (1995)
TTITLE8=Hobo Expressen - En at bli' som (1996)
TTITLE9=Johnny Cash - A boy named Sue (1976)
TTITLE10=Backseat Boys - Listen when my body talks (1994)
TTITLE11=Lynn Anderson - Rose garden (1975)
TTITLE12=Shawn Colvin - I don't know why
TTITLE13=Janie Fricke - Homeward bound (1981)
TTITLE14=The O'Kanes - That's all right mama (1986)
TTITLE15=Poul Krebs - Miles and miles (1991)
TTITLE16=Willie Nelson - Always on my mind (1982)
TTITLE17=Big Fat Snake - Gone forever
EXTD=
EXTT0=
EXTT1=
EXTT2=
EXTT3=
EXTT4=
EXTT5=
EXTT6=
EXTT7=
EXTT8=
EXTT9=
EXTT10=
EXTT11=
EXTT12=
EXTT13=
EXTT14=
EXTT15=
EXTT16=
EXTT17=
PLAYORDER=
